<svg xmlns="http://www.w3.org/2000/svg" enable-background="new 0 0 508 508" version="1.1" xml:space="preserve" viewBox="89.6 30.4 328.8 359.2"><polygon points="418.4 389.6 254 63.2 89.6 389.6" fill="#FF7058"></polygon><circle cx="254" cy="66.4" r="36" fill="#FFD05B"></circle><g fill="#E6E9EE">	<polygon points="258 137.2 267.6 156.4 288.4 159.2 273.2 174.4 276.8 195.2 258 185.2 239.2 195.2 242.8 174.4 227.2 159.2 248.4 156.4"></polygon>	<polygon points="215.6 242 224.8 261.2 246 264.4 230.8 279.2 234.4 300 215.6 290.4 196.8 300 200.4 279.2 184.8 264.4 206 261.2"></polygon>	<polygon points="307.6 285.2 317.2 304.4 338 307.6 322.8 322.4 326.4 343.6 307.6 333.6 288.8 343.6 292.4 322.4 277.2 307.6 298 304.4"></polygon>	<polygon points="164.4 339.2 170 350 182 352 173.2 360.4 175.2 372.4 164.4 366.8 153.6 372.4 156 360.4 147.2 352 159.2 350"></polygon>	<polygon points="360 343.6 365.2 354.4 377.6 356 368.8 364.4 370.8 376.4 360 370.8 349.2 376.4 351.2 364.4 342.8 356 354.8 354.4"></polygon></g></svg>